Patient4_TMGait_0pt4_02_left_39_EMG.mot
version=1
nRows=30
nColumns=33
inDegrees=no
endheader
time	1LAddLong	2LGlutMax	3LGlutMed	4LIliopsoas	5LSemiMemb	6LBicFemLong	7LRecFem	8LVastMed	9LVastLat	10LGasMed	11LTibAnt	12lTibPost	13LPeroneusLong	14LSol	15LExtDigLong	16LFlexDigLong	17RAddLong	18RGlutMax	19RGlutMed	20RIliopsoas	21RSemiMemb	22RBicFemLong	23RRecFem	24RVastMed	25RVastLat	26RGasMed	27RTibAnt	28RTibPost	29RPeroneusLong	30RSol	31RExtDigLong	32RFlexDigLong
52.565	0.003204	-0.009308	-0.10727	0.022278	-0.011902	-0.077667	0.20996	0.00412	-0.16037	0.19318	0.055389	0.012512	-0.06012	0.090942	0.052948	0.36972	-0.052948	0.44189	0.053711	0.31418	0.038452	0.16754	0.22827	-0.012054	-0.031586	0.003815	0.49133	-0.008698	-0.062408	-0.00473	-0.001984	0
52.566	0.00473	-0.065765	-0.14313	0.014648	0.009003	0.054626	0.18143	0.010681	-0.15289	0.21149	0.03067	-0.002136	0.050354	0.039368	0.028076	-0.78842	-0.052948	0.47394	-0.13153	0.48508	0.051727	0.10498	0.28763	-0.069427	-0.052185	0.000305	0.81863	-0.011292	-0.19394	0.002441	-0.002441	-0.011292
52.567	0.003662	-0.10239	-0.1767	-0.013885	-0.019836	0.29938	0.14801	0.010223	-0.13657	0.16419	-0.023041	-0.002441	0.091248	0.038757	0.041351	0.30609	-0.058441	0.45487	-0.16907	0.37415	0.050659	0.09491	0.30212	-0.085907	-0.063171	-0.007172	0.1683	-0.009918	-0.21774	0.1648	0.000916	-0.017242
52.568	0.004578	-0.23956	-0.18524	-0.014343	-0.046692	0.39337	0.044403	0.009003	-0.14633	0.16357	-0.020599	-0.008087	0.005341	0.12161	0.001221	0.37262	-0.040283	0.47516	0.005493	0.21988	0.045929	0.071716	0.2858	-0.050049	-0.06012	-0.007324	-0.6424	-0.005188	-0.16907	0.12009	-0.003815	-0.010834
52.569	-0.008545	-0.35278	-0.12619	-0.017853	-0.12528	0.25513	-0.020294	0.015259	-0.18646	-0.074768	-0.014954	0.041199	-0.082245	0.15778	-0.039673	0.1857	-0.017242	0.44708	0.47562	0.053253	0.071564	0.10315	0.37735	-0.08667	-0.075226	-0.002594	-0.66666	-0.008545	-0.093231	0.13229	-0.002899	-0.010681
52.57	-0.019073	-0.44174	-0.19562	0.001984	-0.18951	0.074921	-0.14938	0.011902	-0.16281	-0.13428	-0.022736	0.045013	-0.1033	0.098724	-0.04837	-0.24689	0.008698	0.46997	0.50842	0.002136	0.053253	0.070496	0.36057	-0.1265	-0.077362	-0.003357	-0.48553	-0.005493	-0.009308	0.18036	-0.000305	-0.012512
52.571	0.007629	-0.40726	-0.20203	0.025635	-0.096741	0.046082	-0.20737	0.017548	-0.11368	0.005188	-0.031738	0.032349	-0.10513	0.13809	-0.037231	-0.1062	0.005188	0.51086	0.27618	-0.067444	0.019226	0.026703	0.33478	-0.10971	-0.076752	0.005646	0.045166	-0.005493	0.11826	0.045319	-0.001221	-0.00885
52.572	0.030212	-0.38528	-0.10986	0.037994	0.15472	0.077209	-0.28915	0.001678	-0.044556	-0.19714	-0.029144	0.02243	-0.075989	0.093079	-0.041656	0.57816	0.007324	0.56	0.061646	-0.078125	-0.024719	0.033722	0.30456	-0.064392	-0.059509	0.012512	0.19745	-0.000763	0.25787	-0.038147	0.002136	-0.008087
52.573	0.033264	-0.33295	-0.20493	0.019379	0.15106	0.034485	-0.41641	0.006409	0.093231	-0.23682	-0.011597	-0.15915	-0.053406	0.055542	-0.047607	-0.57144	-0.053711	0.57083	-0.17593	-0.042725	-0.089111	0.094757	0.30579	-0.023346	-0.048981	0.013733	-0.58548	0.001221	0.24704	-0.13428	0.000916	-0.005493
52.574	0.035706	-0.33035	-0.2594	0.018005	0.058289	-0.15625	-0.53146	0.013428	0.28366	-0.041656	0.030518	-0.026855	-0.081177	0.034485	-0.037079	0.11185	-0.05127	0.61295	0.12528	-0.12192	-0.093994	0.14481	0.35767	-0.01358	-0.072784	0.001984	-0.66055	-0.000763	-0.001221	-0.078583	-0.001221	-0.023193
52.575	0.035706	-0.30533	-0.23529	0.001526	0.00473	-0.12421	-0.51529	-0.013275	0.29511	0.19638	0.028381	-0.001984	-0.047607	0.52978	0.036316	-0.18768	-0.030365	0.7016	0.48141	-0.17456	-0.087891	0.063171	0.36423	-0.059814	-0.073547	-0.011444	-0.1831	0	-0.13626	-0.010681	-0.001526	-0.02533
52.576	0.026703	-0.23254	-0.059052	-0.001526	0.007324	-0.082397	-0.52216	-0.026093	0.19974	0.094147	0.085449	-0.032654	0.062103	0.84747	0.15671	0.31235	-0.012817	0.69992	0.38223	-0.23056	-0.091248	0.041504	0.38742	-0.047607	-0.078278	-0.008545	0.46127	-0.005493	-0.17075	0.069885	-0.003052	-0.024567
52.577	0.024109	-0.23254	0.12299	0.008698	0.002899	-0.10101	-0.63141	-0.020752	0.2124	-0.007477	0.1886	0.004883	0.037231	-0.3598	0.06485	0.26932	-0.008087	0.71106	0.20447	-0.23895	-0.054932	0.028229	0.39932	-0.053864	-0.0737	-0.011292	0.65262	-0.001373	-0.16129	0.12894	-0.002289	-0.021973
52.578	0.010834	-0.2388	0.080109	0.015869	-0.002747	-0.086212	-0.56946	-0.013885	0.14236	-0.11414	0.24307	-0.017853	0.001526	-1.0718	0.095673	0.23224	0.057983	0.71365	0.11368	-0.036926	-0.031433	-0.033112	0.46326	-0.061951	-0.091705	0.000763	0.45319	-0.002594	-0.12726	0.058136	-0.002136	-0.009003
52.579	0.004425	-0.16907	0.1947	0.014191	-0.010681	-0.27084	-0.55862	-0.005951	-0.016937	-0.24323	0.14618	-0.013885	0.066071	-0.81665	0.068054	-0.013885	0.11581	0.73364	0.29022	0.13001	0.02121	-0.17517	0.38834	-0.014343	-0.067749	0.011292	0.29343	-0.002899	-0.077362	-0.003204	-0.000458	-0.000458
52.58	0.004578	-0.070496	0.18494	0.00473	-0.018616	-0.17761	-0.63644	0.002289	-0.24017	-0.34119	-0.14801	0.00351	0.2626	-0.48477	-0.017242	-0.037689	0.12848	0.70816	0.29373	0.21393	0.050354	-0.2002	0.34622	0.015717	-0.054321	0.011597	-0.52689	-0.001526	0.10132	0.036621	0.004425	-0.000305
52.581	0.001831	-0.011444	-0.02243	0.006256	-0.03006	0.089569	-0.69046	-0.001068	-0.26825	-0.25452	-0.34042	0.005493	0.27969	0.033417	-0.068054	-0.04425	0.11993	0.76035	0.081787	0.15762	-0.002594	-0.12573	0.30563	-0.091553	-0.03891	0.00351	-0.41687	-0.002594	0.13672	0.050049	-0.001831	-0.002441
52.582	-0.002136	0.045166	-0.072784	-0.007019	-0.041809	0.22751	-0.7193	-0.006256	-0.1831	-0.13931	-0.40222	-0.000763	0.11856	0.02243	-0.079041	-0.068665	0.10971	0.74692	0.043488	0.11292	-0.042114	-0.05127	0.22659	-0.13596	-0.008545	0.001526	0.2713	-0.004425	0.051727	0.021515	-0.001831	-0.003967
52.583	0.005341	0.10468	0.18845	-0.006409	-0.063782	0.24216	-0.71854	0.0383	-0.16022	-0.065918	-0.2417	0.005035	0.09491	-0.13672	-0.06958	-0.085602	0.017242	0.70877	0.168	-0.081787	-0.045471	0.063782	0.19989	-0.10193	0.002594	-0.007019	0.44098	-0.002289	-0.004883	0.029755	0.005035	-0.016479
52.584	-0.004883	0.16617	0.25299	0.014191	-0.097961	0.17014	-0.71533	0.022736	-0.054016	-0.054626	-0.037689	0.000763	-0.030823	-0.13123	0.077057	-0.076904	-0.005646	0.68176	0.002136	-0.039215	-0.011292	0.14389	0.18143	-0.15442	0.005188	-0.00473	0.14648	-0.000153	0.066376	0.10391	-0.001831	-0.009918
52.585	-0.007782	0.17563	0.18036	0.006866	-0.12299	0.079803	-0.65277	0.004578	0.13458	-0.046692	0.04715	-0.00412	-0.002136	-0.055237	0.20798	-0.072174	-0.053406	0.63858	-0.009308	0.086823	-0.006561	0.070953	0.215	-0.16037	-0.003662	-0.00473	0.27573	-0.003815	0.071716	0.18906	0	-0.009613
52.586	0.005646	0.2124	0.20203	-0.004272	-0.037231	0.047302	-0.72617	-0.010223	0.20294	-0.036316	0.049744	0.001526	0.03952	0.001373	-0.18249	-0.068817	-0.06012	0.72098	-0.10254	0.16617	-0.00061	0.004883	0.25207	-0.15228	-0.00061	-0.01236	-0.21744	-0.005188	-0.069122	0.07431	0.000916	-0.009766
52.587	0.015106	0.20813	0.18845	0	0.044708	0.071259	-0.75928	-0.062103	0.18112	-0.036163	-0.013123	0.003052	0.026703	0.037689	-0.27039	-0.071411	-0.004883	0.71396	-0.026245	0.1947	0.00351	0.003967	0.23529	-0.12283	0.000305	-0.006866	-0.07431	-0.00351	-0.13229	-0.006104	0.001526	-0.016785
52.588	0.009918	0.25574	0.064697	-0.006561	0.028076	0.078888	-0.7077	-0.051575	0.048981	-0.053711	-0.018463	0.010986	0.024261	0.027924	-0.16052	-0.062256	0.000458	0.72891	0.11704	0.14801	-0.011139	-0.013733	0.23178	-0.052032	-0.020905	0.005188	0.29373	-0.00473	-0.13229	-0.14572	0.00351	-0.005493
52.589	0.018311	0.23499	-0.05249	-0.012817	0.003815	-0.09613	-0.68253	-0.023804	-0.12802	-0.042114	0.005951	-0.00061	-0.000153	-0.00061	-0.070648	-0.050507	0.034332	0.76233	-0.068512	0.071564	-0.030518	-0.015259	0.23544	0.006714	-0.021667	0.021057	-0.19959	-0.000763	0.06546	-0.25116	0.000153	-0.009308
52.59	0.00412	0.15503	-0.20783	-0.011444	-0.007324	-0.097351	-0.65399	-0.01297	-0.030212	-0.057983	0.05661	-0.007019	-0.010376	-0.038757	-0.073547	-0.046234	-0.030518	0.78964	0.10757	0.121	-0.062714	-0.050659	0.28519	-0.007782	-0.036774	0.022583	-0.30319	-0.000153	0.14404	-0.33844	-0.001068	-0.007782
52.591	0.001373	0.031433	-0.33676	0.012665	-0.001068	0.033569	-0.64255	0.019073	0.12283	-0.021515	0.044708	0.00061	0.00824	-0.061951	-0.083923	-0.034485	-0.12665	0.78629	0.13931	0.042877	-0.050964	-0.096741	0.25589	0.000458	-0.055389	0.007019	0.041046	0.000305	-0.13901	-0.28229	0.000305	-0.009766
52.592	-0.002441	-0.076141	-0.33691	0.013428	0.013733	0.12375	-0.60455	0.032196	0.23605	0.035095	-0.078888	0.010071	0.056152	-0.040741	-0.026398	-0.028992	-0.16052	0.77103	-0.003815	0.032501	-0.029449	-0.13794	0.27313	0.061188	-0.059662	0.003204	-0.44357	0.000305	-0.031891	-0.20844	-0.002899	-0.014496
52.593	0.00351	-0.047607	-0.23407	0.031586	-0.019989	0.20966	-0.45044	0.040131	0.29144	0.14099	-0.040131	-0.001221	0.017853	-0.062866	0.0177	-0.034027	-0.13977	0.76431	0.22873	0.066223	-0.03479	-0.14221	0.27863	0.021973	-0.071259	0.003204	-0.47348	-0.001068	-0.020905	-0.12436	-0.002899	-0.014343
52.594	0.012817	-0.025177	-0.25696	0.026093	-0.084839	0.22522	-0.46432	0.002136	0.31586	0.27069	0.018005	-0.003662	-0.061951	-0.066833	0.052948	-0.03067	-0.13718	0.69397	0.25177	-0.016937	-0.007172	-0.14221	0.30899	0.029297	-0.088348	-0.009308	-0.42374	-0.001068	-0.034485	0.12772	-0.000763	-0.019684
